<?xml version="1.0" encoding="UTF-8"?> <svg xmlns="http://www.w3.org/2000/svg" width="200" height="79.633" viewBox="0 0 200 79.633"><g transform="translate(3816 1300)"><path d="M0,219.791v.974H2.055v5.226H3.207v-5.226H5.262v-.974Z" transform="translate(-3816 -1448.139)" fill="#002955"></path><path d="M19.177,224.922v-.731H18.123v4.73H19.23v-2.294a1.474,1.474,0,0,1,.372-1.094,1.361,1.361,0,0,1,1-.368c.041,0,.082,0,.124,0a.783.783,0,0,1,.133.022v-1.054a2.362,2.362,0,0,0-1.138.248,1.488,1.488,0,0,0-.545.536" transform="translate(-3828.215 -1451.07)" fill="#002955"></path><path d="M29.476,224.139a4.088,4.088,0,0,0-1.094.146,2.637,2.637,0,0,0-.908.439l.434.806a1.932,1.932,0,0,1,.651-.346,2.552,2.552,0,0,1,.784-.124,1.267,1.267,0,0,1,.886.271.978.978,0,0,1,.292.757v.071H29.3a2.973,2.973,0,0,0-1.151.185,1.281,1.281,0,0,0-.624.505,1.374,1.374,0,0,0-.191.717,1.282,1.282,0,0,0,.217.731,1.433,1.433,0,0,0,.615.5,2.219,2.219,0,0,0,.93.182,2.115,2.115,0,0,0,1.041-.231,1.239,1.239,0,0,0,.447-.44v.609h1.045V226.15a1.911,1.911,0,0,0-.563-1.519,2.339,2.339,0,0,0-1.589-.492m.58,3.853a1.442,1.442,0,0,1-.731.186,1.1,1.1,0,0,1-.664-.177.564.564,0,0,1-.239-.478.588.588,0,0,1,.195-.448,1.154,1.154,0,0,1,.762-.181h1.143v.549a1.056,1.056,0,0,1-.465.549" transform="translate(-3834.422 -1451.07)" fill="#002955"></path><path d="M48.557,224.359a2.255,2.255,0,0,0-1.014-.221,2.361,2.361,0,0,0-1.094.244,1.68,1.68,0,0,0-.536.451v-.642H44.859v4.73h1.107V226.53a1.7,1.7,0,0,1,.164-.793,1.088,1.088,0,0,1,.465-.474,1.458,1.458,0,0,1,.691-.159,1.1,1.1,0,0,1,.828.31,1.313,1.313,0,0,1,.3.939v2.569h1.107v-2.71a2.381,2.381,0,0,0-.257-1.174,1.629,1.629,0,0,0-.7-.678" transform="translate(-3846.235 -1451.069)" fill="#002955"></path><path d="M65.377,226.49a2.6,2.6,0,0,0-.571-.217,4.887,4.887,0,0,0-.624-.12,5.24,5.24,0,0,1-.571-.1,1.285,1.285,0,0,1-.416-.168.358.358,0,0,1-.16-.319.441.441,0,0,1,.244-.381,1.455,1.455,0,0,1,.748-.15,3.157,3.157,0,0,1,.678.075,2.245,2.245,0,0,1,.677.279l.426-.841a2.617,2.617,0,0,0-.806-.3,4.527,4.527,0,0,0-.965-.106,3.034,3.034,0,0,0-1.1.181,1.638,1.638,0,0,0-.722.514,1.242,1.242,0,0,0-.257.784,1.2,1.2,0,0,0,.159.656,1.179,1.179,0,0,0,.416.394,2.155,2.155,0,0,0,.571.222q.314.075.629.12c.21.03.4.062.571.1a1.235,1.235,0,0,1,.416.155.33.33,0,0,1,.159.3.429.429,0,0,1-.235.381,1.525,1.525,0,0,1-.757.142,3.081,3.081,0,0,1-.886-.133,3.028,3.028,0,0,1-.761-.336l-.425.842a2.927,2.927,0,0,0,.864.376,4.135,4.135,0,0,0,1.138.155,3.218,3.218,0,0,0,1.143-.182,1.678,1.678,0,0,0,.74-.509,1.2,1.2,0,0,0,.261-.771,1.178,1.178,0,0,0-.159-.647,1.1,1.1,0,0,0-.421-.385" transform="translate(-3857.661 -1451.07)" fill="#002955"></path><path d="M77.561,219.545a.679.679,0,0,1,.522-.19,1.1,1.1,0,0,1,.328.049.854.854,0,0,1,.284.146l.3-.832a1.177,1.177,0,0,0-.439-.195A2.408,2.408,0,0,0,78,218.46a1.676,1.676,0,0,0-1.253.448,1.629,1.629,0,0,0-.438,1.191v.3h-.779v.885h.779v3.809h1.107v-3.809h1.267V220.4h-1.3v-.283a.811.811,0,0,1,.178-.571" transform="translate(-3866.908 -1447.242)" fill="#002955"></path><path d="M89.9,224.448a2.7,2.7,0,0,0-1.307-.31,2.656,2.656,0,0,0-1.293.31,2.328,2.328,0,0,0-.895.855,2.553,2.553,0,0,0,0,2.5,2.354,2.354,0,0,0,.895.864,2.622,2.622,0,0,0,1.293.315,2.665,2.665,0,0,0,1.307-.315,2.316,2.316,0,0,0,.895-.864,2.591,2.591,0,0,0,0-2.507,2.3,2.3,0,0,0-.895-.851m-.08,2.9a1.252,1.252,0,0,1-.5.513,1.465,1.465,0,0,1-.726.177,1.421,1.421,0,0,1-.713-.177,1.287,1.287,0,0,1-.5-.513,1.772,1.772,0,0,1,0-1.581,1.3,1.3,0,0,1,.5-.509,1.551,1.551,0,0,1,1.439,0,1.26,1.26,0,0,1,.5.509,1.81,1.81,0,0,1,0,1.581" transform="translate(-3874.013 -1451.069)" fill="#002955"></path><path d="M105.849,224.922v-.731h-1.054v4.73H105.9v-2.294a1.474,1.474,0,0,1,.372-1.094,1.361,1.361,0,0,1,1-.368c.041,0,.082,0,.124,0a.783.783,0,0,1,.133.022v-1.054a2.362,2.362,0,0,0-1.138.248,1.488,1.488,0,0,0-.545.536" transform="translate(-3886.631 -1451.07)" fill="#002955"></path><path d="M123.044,224.359a2.2,2.2,0,0,0-1.005-.221,2.341,2.341,0,0,0-1.231.319,1.908,1.908,0,0,0-.539.48,1.441,1.441,0,0,0-.44-.471,2.032,2.032,0,0,0-1.156-.328,2.206,2.206,0,0,0-1.041.239,1.587,1.587,0,0,0-.51.443v-.63h-1.054v4.73h1.107v-2.4a1.76,1.76,0,0,1,.155-.788,1.081,1.081,0,0,1,.434-.47,1.274,1.274,0,0,1,.642-.159,1,1,0,0,1,.789.31,1.38,1.38,0,0,1,.274.939v2.569h1.107v-2.4a1.759,1.759,0,0,1,.155-.788,1.081,1.081,0,0,1,.434-.47,1.274,1.274,0,0,1,.642-.159,1,1,0,0,1,.788.31,1.382,1.382,0,0,1,.275.939v2.569h1.107v-2.71a2.45,2.45,0,0,0-.248-1.174,1.587,1.587,0,0,0-.687-.678" transform="translate(-3894.23 -1451.069)" fill="#002955"></path><path d="M144.926,217.835a.708.708,0,0,0-.509.19.658.658,0,0,0,0,.943.7.7,0,0,0,.509.195.686.686,0,0,0,.514-.2.676.676,0,0,0,.194-.492.592.592,0,0,0-.2-.456.731.731,0,0,0-.51-.181" transform="translate(-3913.202 -1446.821)" fill="#002955"></path><rect width="1.107" height="4.73" transform="translate(-3768.834 -1226.878)" fill="#002955"></rect><path d="M156.23,224.359a2.255,2.255,0,0,0-1.014-.221,2.36,2.36,0,0,0-1.094.244,1.68,1.68,0,0,0-.536.451v-.642h-1.054v4.73h1.107V226.53a1.7,1.7,0,0,1,.164-.793,1.088,1.088,0,0,1,.465-.474,1.458,1.458,0,0,1,.691-.159,1.1,1.1,0,0,1,.828.31,1.313,1.313,0,0,1,.3.939v2.569h1.107v-2.71a2.381,2.381,0,0,0-.257-1.174,1.629,1.629,0,0,0-.7-.678" transform="translate(-3918.806 -1451.069)" fill="#002955"></path><path d="M174,224.827a1.725,1.725,0,0,0-.558-.449,2.385,2.385,0,0,0-1.081-.239,2.6,2.6,0,0,0-1.217.284,2.146,2.146,0,0,0-.859.8,2.446,2.446,0,0,0,0,2.4,2.182,2.182,0,0,0,.859.8,2.568,2.568,0,0,0,1.217.288,2.349,2.349,0,0,0,1.081-.244,1.744,1.744,0,0,0,.5-.394v.258a1.451,1.451,0,0,1-.363,1.076,1.572,1.572,0,0,1-1.143.358,3.08,3.08,0,0,1-.961-.155,2.382,2.382,0,0,1-.784-.412l-.5.833a2.741,2.741,0,0,0,1.023.5,4.782,4.782,0,0,0,1.28.172,2.694,2.694,0,0,0,1.9-.606,2.461,2.461,0,0,0,.656-1.891v-4.012H174Zm-.217,2.292a1.269,1.269,0,0,1-.51.479,1.572,1.572,0,0,1-.744.172,1.6,1.6,0,0,1-.749-.172,1.256,1.256,0,0,1-.513-.479,1.454,1.454,0,0,1,0-1.408,1.2,1.2,0,0,1,.513-.469,1.67,1.67,0,0,1,.749-.164,1.643,1.643,0,0,1,.744.164,1.207,1.207,0,0,1,.51.469,1.459,1.459,0,0,1,0,1.408" transform="translate(-3930.562 -1451.07)" fill="#002955"></path><path d="M202.208,222.351H199v-2.56H197.85v6.2H199v-2.658h3.207v2.658h1.151v-6.2h-1.151Z" transform="translate(-3949.35 -1448.138)" fill="#002955"></path><path d="M222.012,224.439a2.487,2.487,0,0,0-1.231-.3,2.539,2.539,0,0,0-1.262.31,2.249,2.249,0,0,0-.868.855,2.462,2.462,0,0,0-.314,1.253,2.415,2.415,0,0,0,.323,1.249,2.286,2.286,0,0,0,.912.864,3.161,3.161,0,0,0,2.48.115,2.087,2.087,0,0,0,.8-.571l-.593-.682a1.533,1.533,0,0,1-.567.39,1.972,1.972,0,0,1-.718.124,1.793,1.793,0,0,1-.814-.177,1.3,1.3,0,0,1-.55-.5,1.375,1.375,0,0,1-.158-.452h3.7c.006-.053.01-.109.013-.168s0-.112,0-.159a2.584,2.584,0,0,0-.31-1.293,2.177,2.177,0,0,0-.85-.85m-2.422,1.253a1.248,1.248,0,0,1,.478-.492,1.391,1.391,0,0,1,.713-.178,1.373,1.373,0,0,1,.7.178,1.232,1.232,0,0,1,.629.974h-2.669a1.411,1.411,0,0,1,.145-.482" transform="translate(-3963.158 -1451.069)" fill="#002955"></path><path d="M237.134,224.139a4.087,4.087,0,0,0-1.094.146,2.637,2.637,0,0,0-.908.439l.434.806a1.933,1.933,0,0,1,.651-.346,2.552,2.552,0,0,1,.784-.124,1.267,1.267,0,0,1,.886.271.978.978,0,0,1,.292.757v.071h-1.223a2.973,2.973,0,0,0-1.151.185,1.281,1.281,0,0,0-.624.505,1.374,1.374,0,0,0-.191.717,1.282,1.282,0,0,0,.217.731,1.433,1.433,0,0,0,.615.5,2.219,2.219,0,0,0,.93.182,2.115,2.115,0,0,0,1.041-.231,1.239,1.239,0,0,0,.447-.44v.609h1.046V226.15a1.911,1.911,0,0,0-.563-1.519,2.339,2.339,0,0,0-1.589-.492m.58,3.853a1.442,1.442,0,0,1-.731.186,1.1,1.1,0,0,1-.664-.177.564.564,0,0,1-.239-.478.588.588,0,0,1,.195-.448,1.154,1.154,0,0,1,.762-.181h1.143v.549a1.056,1.056,0,0,1-.465.549" transform="translate(-3974.383 -1451.07)" fill="#002955"></path><rect width="1.107" height="6.573" transform="translate(-3733.679 -1228.72)" fill="#002955"></rect><path d="M261.686,226.02a.626.626,0,0,1-.483-.186.741.741,0,0,1-.173-.523v-2.25H262.3v-.885h-1.267V221.1h-1.107v1.08h-.779v.885h.779v2.277a1.566,1.566,0,0,0,.425,1.191,1.682,1.682,0,0,0,1.2.4,2.151,2.151,0,0,0,.585-.08,1.316,1.316,0,0,0,.479-.239l-.31-.788a.972.972,0,0,1-.62.195" transform="translate(-3990.662 -1449.019)" fill="#002955"></path><path d="M276.29,220.66a2.255,2.255,0,0,0-1.014-.221,2.36,2.36,0,0,0-1.094.244,1.7,1.7,0,0,0-.482.381v-2.414h-1.107v6.573H273.7V222.83a1.7,1.7,0,0,1,.164-.793,1.088,1.088,0,0,1,.465-.474,1.458,1.458,0,0,1,.691-.159,1.1,1.1,0,0,1,.828.31,1.313,1.313,0,0,1,.3.939v2.569h1.107v-2.71a2.378,2.378,0,0,0-.257-1.174,1.627,1.627,0,0,0-.7-.678" transform="translate(-3999.727 -1447.369)" fill="#002955"></path><path d="M291.852,225.255a1.522,1.522,0,0,1,.735-.177,1.409,1.409,0,0,1,.66.159,1.364,1.364,0,0,1,.519.5l.85-.5a1.854,1.854,0,0,0-.8-.819,2.564,2.564,0,0,0-1.218-.279,2.765,2.765,0,0,0-1.324.31,2.3,2.3,0,0,0-.908.855,2.551,2.551,0,0,0,0,2.5,2.323,2.323,0,0,0,.908.864,2.73,2.73,0,0,0,1.324.315,2.5,2.5,0,0,0,1.218-.288,1.922,1.922,0,0,0,.8-.819l-.85-.5a1.365,1.365,0,0,1-.519.5,1.409,1.409,0,0,1-.66.159,1.518,1.518,0,0,1-.735-.177,1.271,1.271,0,0,1-.513-.509,1.781,1.781,0,0,1,0-1.586,1.271,1.271,0,0,1,.513-.509" transform="translate(-4011.483 -1451.07)" fill="#002955"></path><path d="M308.129,224.139a4.088,4.088,0,0,0-1.094.146,2.637,2.637,0,0,0-.908.439l.434.806a1.933,1.933,0,0,1,.651-.346,2.552,2.552,0,0,1,.784-.124,1.268,1.268,0,0,1,.886.271.979.979,0,0,1,.292.757v.071h-1.223a2.973,2.973,0,0,0-1.151.185,1.281,1.281,0,0,0-.624.505,1.374,1.374,0,0,0-.191.717,1.282,1.282,0,0,0,.217.731,1.433,1.433,0,0,0,.616.5,2.219,2.219,0,0,0,.93.182,2.114,2.114,0,0,0,1.041-.231,1.239,1.239,0,0,0,.447-.44v.609h1.046V226.15a1.911,1.911,0,0,0-.563-1.519,2.339,2.339,0,0,0-1.589-.492m.58,3.853a1.442,1.442,0,0,1-.731.186,1.1,1.1,0,0,1-.664-.177.564.564,0,0,1-.239-.478.588.588,0,0,1,.195-.448,1.154,1.154,0,0,1,.762-.181h1.143v.549a1.056,1.056,0,0,1-.465.549" transform="translate(-4022.233 -1451.07)" fill="#002955"></path><path d="M324.564,224.922v-.731H323.51v4.73h1.107v-2.294a1.474,1.474,0,0,1,.372-1.094,1.361,1.361,0,0,1,1-.368c.041,0,.082,0,.124,0a.783.783,0,0,1,.133.022v-1.054a2.362,2.362,0,0,0-1.138.248,1.488,1.488,0,0,0-.545.536" transform="translate(-4034.045 -1451.07)" fill="#002955"></path><path d="M337.131,224.439a2.487,2.487,0,0,0-1.231-.3,2.541,2.541,0,0,0-1.262.31,2.25,2.25,0,0,0-.868.855,2.459,2.459,0,0,0-.315,1.253,2.415,2.415,0,0,0,.323,1.249,2.284,2.284,0,0,0,.913.864,3.161,3.161,0,0,0,2.48.115,2.087,2.087,0,0,0,.8-.571l-.593-.682a1.536,1.536,0,0,1-.567.39,1.972,1.972,0,0,1-.718.124,1.793,1.793,0,0,1-.814-.177,1.3,1.3,0,0,1-.55-.5,1.377,1.377,0,0,1-.158-.452h3.7q.009-.08.014-.168c0-.059,0-.112,0-.159a2.588,2.588,0,0,0-.31-1.293,2.179,2.179,0,0,0-.85-.85m-2.422,1.253a1.251,1.251,0,0,1,.478-.492,1.391,1.391,0,0,1,.713-.178,1.373,1.373,0,0,1,.7.178,1.232,1.232,0,0,1,.628.974h-2.669a1.419,1.419,0,0,1,.145-.482" transform="translate(-4040.748 -1451.069)" fill="#002955"></path><path d="M363.41,226.286a1.14,1.14,0,0,1-.443-.089,1.6,1.6,0,0,1-.439-.288c-.052-.046-.107-.1-.162-.161.107-.03.219-.051.321-.091a3.286,3.286,0,0,0,1.059-.664,2.953,2.953,0,0,0,.7-1.009,3.4,3.4,0,0,0,0-2.551,2.953,2.953,0,0,0-.7-1.01,3.292,3.292,0,0,0-1.059-.664,3.821,3.821,0,0,0-2.662,0,3.244,3.244,0,0,0-1.063.669,3.023,3.023,0,0,0-.7,1.01,3.385,3.385,0,0,0,0,2.542,3.013,3.013,0,0,0,.7,1.009,3.228,3.228,0,0,0,1.063.669,3.525,3.525,0,0,0,.965.207c.192.2.375.378.541.524a4.039,4.039,0,0,0,.616.452,2.285,2.285,0,0,0,.6.248,2.629,2.629,0,0,0,.633.076,2.02,2.02,0,0,0,1.621-.735l-.531-.637a1.4,1.4,0,0,1-1.062.5m-3.614-2.015a2.14,2.14,0,0,1-.456-.7,2.392,2.392,0,0,1,0-1.741,2.15,2.15,0,0,1,.456-.69,1.988,1.988,0,0,1,.691-.456,2.443,2.443,0,0,1,1.736,0,1.994,1.994,0,0,1,.69.456,2.157,2.157,0,0,1,.456.69,2.392,2.392,0,0,1,0,1.741,2.147,2.147,0,0,1-.456.7,2,2,0,0,1-.69.456,2.443,2.443,0,0,1-1.736,0,2,2,0,0,1-.691-.456" transform="translate(-4057.301 -1447.956)" fill="#002955"></path><path d="M385.324,226.693a1.712,1.712,0,0,1-.164.788,1.11,1.11,0,0,1-.452.479,1.378,1.378,0,0,1-.677.159,1.055,1.055,0,0,1-.82-.315,1.37,1.37,0,0,1-.288-.952V224.3h-1.107V227a2.4,2.4,0,0,0,.257,1.173,1.619,1.619,0,0,0,.717.691,2.384,2.384,0,0,0,1.063.226,2.127,2.127,0,0,0,1.01-.244,1.633,1.633,0,0,0,.514-.448v.629h1.054V224.3h-1.107Z" transform="translate(-4073.344 -1451.179)" fill="#002955"></path><path d="M401.538,224.139a4.087,4.087,0,0,0-1.094.146,2.636,2.636,0,0,0-.908.439l.434.806a1.933,1.933,0,0,1,.651-.346,2.552,2.552,0,0,1,.784-.124,1.267,1.267,0,0,1,.886.271.978.978,0,0,1,.292.757v.071h-1.222a2.973,2.973,0,0,0-1.151.185,1.281,1.281,0,0,0-.624.505,1.374,1.374,0,0,0-.191.717,1.282,1.282,0,0,0,.217.731,1.433,1.433,0,0,0,.615.5,2.22,2.22,0,0,0,.93.182,2.115,2.115,0,0,0,1.041-.231,1.24,1.24,0,0,0,.447-.44v.609h1.046V226.15a1.911,1.911,0,0,0-.563-1.519,2.339,2.339,0,0,0-1.589-.492m.58,3.853a1.442,1.442,0,0,1-.731.186,1.1,1.1,0,0,1-.664-.177.564.564,0,0,1-.239-.478.588.588,0,0,1,.195-.448,1.154,1.154,0,0,1,.762-.181h1.143v.549a1.056,1.056,0,0,1-.465.549" transform="translate(-4085.19 -1451.07)" fill="#002955"></path><rect width="1.107" height="6.573" transform="translate(-3680.083 -1228.72)" fill="#002955"></rect><path d="M425.018,217.835a.708.708,0,0,0-.509.19.658.658,0,0,0,0,.943.7.7,0,0,0,.509.195.686.686,0,0,0,.514-.2.676.676,0,0,0,.194-.492.592.592,0,0,0-.2-.456.731.731,0,0,0-.509-.181" transform="translate(-4101.984 -1446.821)" fill="#002955"></path><rect width="1.107" height="4.73" transform="translate(-3677.523 -1226.878)" fill="#002955"></rect><path d="M433.856,225.826a.972.972,0,0,1-.62.195.628.628,0,0,1-.483-.186.742.742,0,0,1-.173-.523v-2.25h1.267v-.886h-1.267V221.1h-1.107v1.08h-.78v.886h.78v2.276a1.567,1.567,0,0,0,.425,1.192,1.684,1.684,0,0,0,1.2.4,2.163,2.163,0,0,0,.584-.08,1.313,1.313,0,0,0,.479-.239Z" transform="translate(-4106.287 -1449.019)" fill="#002955"></path><path d="M443.927,227.8l-1.488-3.5h-1.151l2.068,4.745-.084.189a1.363,1.363,0,0,1-.345.5.75.75,0,0,1-.487.151A1.123,1.123,0,0,1,442,229.8a1.328,1.328,0,0,1-.381-.239l-.443.815a1.638,1.638,0,0,0,.576.318,2.163,2.163,0,0,0,.691.115,2.073,2.073,0,0,0,.731-.124,1.5,1.5,0,0,0,.6-.434,3.1,3.1,0,0,0,.491-.842l2.215-5.111h-1.063Z" transform="translate(-4113.355 -1451.179)" fill="#002955"></path><path d="M468.184,224.139a4.088,4.088,0,0,0-1.094.146,2.637,2.637,0,0,0-.908.439l.434.806a1.932,1.932,0,0,1,.651-.346,2.552,2.552,0,0,1,.784-.124,1.267,1.267,0,0,1,.886.271.978.978,0,0,1,.292.757v.071h-1.223a2.973,2.973,0,0,0-1.151.185,1.281,1.281,0,0,0-.624.505,1.374,1.374,0,0,0-.191.717,1.283,1.283,0,0,0,.217.731,1.433,1.433,0,0,0,.616.5,2.219,2.219,0,0,0,.93.182,2.115,2.115,0,0,0,1.041-.231,1.239,1.239,0,0,0,.447-.44v.609h1.045V226.15a1.911,1.911,0,0,0-.563-1.519,2.339,2.339,0,0,0-1.589-.492m.58,3.853a1.442,1.442,0,0,1-.731.186,1.1,1.1,0,0,1-.664-.177.564.564,0,0,1-.239-.478.588.588,0,0,1,.195-.448,1.154,1.154,0,0,1,.762-.181h1.143v.549a1.056,1.056,0,0,1-.465.549" transform="translate(-4130.11 -1451.07)" fill="#002955"></path><path d="M487.265,224.359a2.255,2.255,0,0,0-1.014-.221,2.36,2.36,0,0,0-1.094.244,1.68,1.68,0,0,0-.536.451v-.642h-1.054v4.73h1.107V226.53a1.7,1.7,0,0,1,.164-.793,1.088,1.088,0,0,1,.465-.474,1.458,1.458,0,0,1,.691-.159,1.1,1.1,0,0,1,.828.31,1.313,1.313,0,0,1,.3.939v2.569h1.107v-2.71a2.377,2.377,0,0,0-.257-1.174,1.627,1.627,0,0,0-.7-.678" transform="translate(-4141.923 -1451.069)" fill="#002955"></path><path d="M504.923,221.078a1.734,1.734,0,0,0-.46-.378,2.151,2.151,0,0,0-1.063-.261,2.5,2.5,0,0,0-1.227.3,2.188,2.188,0,0,0-.854.842,2.778,2.778,0,0,0,0,2.551,2.222,2.222,0,0,0,.854.845,2.464,2.464,0,0,0,1.227.306,2.16,2.16,0,0,0,1.081-.266,1.72,1.72,0,0,0,.487-.42v.624h1.054v-6.573h-1.1Zm-.172,2.567a1.318,1.318,0,0,1-.5.513,1.525,1.525,0,0,1-1.426,0,1.312,1.312,0,0,1-.5-.513,1.735,1.735,0,0,1,0-1.581,1.322,1.322,0,0,1,.5-.509,1.525,1.525,0,0,1,1.426,0,1.328,1.328,0,0,1,.5.509,1.734,1.734,0,0,1,0,1.581" transform="translate(-4153.678 -1447.369)" fill="#002955"></path><path d="M531.321,222.743a3.291,3.291,0,0,0-.717-.3q-.395-.115-.793-.208t-.722-.19a1.406,1.406,0,0,1-.523-.271.573.573,0,0,1-.2-.456.7.7,0,0,1,.137-.425.948.948,0,0,1,.434-.3,2.189,2.189,0,0,1,.775-.115,3.258,3.258,0,0,1,.851.12,3.444,3.444,0,0,1,.859.368l.363-.894a3.2,3.2,0,0,0-.957-.408,4.41,4.41,0,0,0-1.107-.142,3.4,3.4,0,0,0-1.4.252,1.863,1.863,0,0,0-.824.674,1.678,1.678,0,0,0-.269.926,1.484,1.484,0,0,0,.2.815,1.541,1.541,0,0,0,.527.509,3.263,3.263,0,0,0,.717.31q.394.12.788.208t.717.191a1.509,1.509,0,0,1,.527.274.569.569,0,0,1,.2.456.653.653,0,0,1-.142.412.94.94,0,0,1-.443.288,2.415,2.415,0,0,1-.788.107,3.332,3.332,0,0,1-1.124-.2,3.209,3.209,0,0,1-.922-.487l-.4.895a3.02,3.02,0,0,0,1.054.536,4.62,4.62,0,0,0,1.391.208,3.427,3.427,0,0,0,1.408-.253,1.859,1.859,0,0,0,.828-.673,1.665,1.665,0,0,0,.27-.917,1.5,1.5,0,0,0-.2-.806,1.473,1.473,0,0,0-.523-.5" transform="translate(-4171.259 -1447.956)" fill="#002955"></path><path d="M546.57,224.139a4.088,4.088,0,0,0-1.094.146,2.636,2.636,0,0,0-.908.439l.434.806a1.933,1.933,0,0,1,.651-.346,2.551,2.551,0,0,1,.784-.124,1.266,1.266,0,0,1,.886.271.978.978,0,0,1,.292.757v.071h-1.222a2.973,2.973,0,0,0-1.151.185,1.282,1.282,0,0,0-.624.505,1.374,1.374,0,0,0-.191.717,1.282,1.282,0,0,0,.217.731,1.433,1.433,0,0,0,.615.5,2.219,2.219,0,0,0,.93.182,2.114,2.114,0,0,0,1.041-.231,1.239,1.239,0,0,0,.447-.44v.609h1.046V226.15a1.911,1.911,0,0,0-.563-1.519,2.339,2.339,0,0,0-1.589-.492m.58,3.853a1.442,1.442,0,0,1-.731.186,1.1,1.1,0,0,1-.664-.177.564.564,0,0,1-.239-.478.588.588,0,0,1,.195-.448,1.155,1.155,0,0,1,.762-.181h1.143v.549a1.055,1.055,0,0,1-.465.549" transform="translate(-4182.942 -1451.07)" fill="#002955"></path><path d="M562.05,219.545a.679.679,0,0,1,.522-.19,1.1,1.1,0,0,1,.328.049.854.854,0,0,1,.284.146l.3-.832a1.176,1.176,0,0,0-.439-.195,2.408,2.408,0,0,0-.554-.062,1.676,1.676,0,0,0-1.253.448,1.628,1.628,0,0,0-.438,1.191v.3h-.78v.885h.78v3.809h1.107v-3.809h1.267V220.4h-1.3v-.283a.811.811,0,0,1,.178-.571" transform="translate(-4193.453 -1447.242)" fill="#002955"></path><path d="M574.24,224.439a2.488,2.488,0,0,0-1.231-.3,2.542,2.542,0,0,0-1.262.31,2.25,2.25,0,0,0-.868.855,2.459,2.459,0,0,0-.315,1.253,2.416,2.416,0,0,0,.323,1.249,2.284,2.284,0,0,0,.913.864,3.161,3.161,0,0,0,2.48.115,2.088,2.088,0,0,0,.8-.571l-.593-.682a1.536,1.536,0,0,1-.567.39,1.972,1.972,0,0,1-.718.124,1.793,1.793,0,0,1-.814-.177,1.3,1.3,0,0,1-.549-.5,1.374,1.374,0,0,1-.159-.452h3.7q.009-.08.014-.168c0-.059,0-.112,0-.159a2.588,2.588,0,0,0-.31-1.293,2.179,2.179,0,0,0-.85-.85m-2.422,1.253a1.251,1.251,0,0,1,.478-.492,1.391,1.391,0,0,1,.713-.178,1.373,1.373,0,0,1,.7.178,1.232,1.232,0,0,1,.628.974h-2.669a1.418,1.418,0,0,1,.145-.482" transform="translate(-4200.559 -1451.069)" fill="#002955"></path><path d="M589.892,225.826a.972.972,0,0,1-.62.195.628.628,0,0,1-.483-.186.742.742,0,0,1-.173-.523v-2.25h1.267v-.886h-1.267V221.1h-1.107v1.08h-.78v.886h.78v2.276a1.567,1.567,0,0,0,.425,1.192,1.684,1.684,0,0,0,1.2.4,2.163,2.163,0,0,0,.584-.08,1.313,1.313,0,0,0,.479-.239Z" transform="translate(-4211.454 -1449.019)" fill="#002955"></path><path d="M601.46,224.3l-1.5,3.5-1.488-3.5h-1.152l2.068,4.745-.084.189a1.357,1.357,0,0,1-.345.5.75.75,0,0,1-.487.151,1.123,1.123,0,0,1-.435-.089,1.327,1.327,0,0,1-.38-.239l-.443.815a1.636,1.636,0,0,0,.576.318,2.172,2.172,0,0,0,.691.115,2.065,2.065,0,0,0,.731-.124,1.493,1.493,0,0,0,.6-.434,3.1,3.1,0,0,0,.491-.842l2.214-5.111Z" transform="translate(-4218.522 -1451.179)" fill="#002955"></path><path d="M431.635,96.5l.007-.034-.007.034" transform="translate(-4106.921 -1365.02)" fill="#002955" fill-rule="evenodd"></path><path d="M36.824,30.879h-24.4V9.705H0v53.7H12.428V41.389h24.4V63.407H49.252V9.705H36.824Z" transform="translate(-3816 -1306.542)" fill="#002955"></path><path d="M191.348,22.224a15.65,15.65,0,0,1,5.447-3.529,18.848,18.848,0,0,1,6.9-1.227,17.237,17.237,0,0,1,7.365,1.573,18.684,18.684,0,0,1,6.137,4.718l7.979-7.365a24.6,24.6,0,0,0-9.475-7.1,31.737,31.737,0,0,0-12.62-2.416A32.066,32.066,0,0,0,191.5,8.914a27.635,27.635,0,0,0-9.244,5.792,26.6,26.6,0,0,0-6.137,8.822,27.771,27.771,0,0,0-2.186,11.124,27.764,27.764,0,0,0,2.186,11.124,26.812,26.812,0,0,0,15.343,14.615,32.156,32.156,0,0,0,11.546,2.033,31.5,31.5,0,0,0,12.7-2.455,24.926,24.926,0,0,0,9.475-7.135L217.2,45.47a18.262,18.262,0,0,1-6.137,4.795,17.223,17.223,0,0,1-7.365,1.573,18.828,18.828,0,0,1-6.9-1.227,15.636,15.636,0,0,1-5.447-3.529,16.11,16.11,0,0,1-3.567-5.447,18.532,18.532,0,0,1-1.266-6.981,18.545,18.545,0,0,1,1.266-6.981,16.119,16.119,0,0,1,3.567-5.447" transform="translate(-3933.23 -1304.638)" fill="#002955"></path><rect width="12.428" height="53.702" transform="translate(-3699.292 -1296.837)" fill="#002955"></rect><path d="M531.518,131.838a3.056,3.056,0,0,0,.658-1.325A3.808,3.808,0,0,0,531.1,127c-2.047-2.164-6.381-1.1-8.983-.143s-15.16,7.237-18.42,8.868a36.666,36.666,0,0,1-8.251,3.2,3.165,3.165,0,0,0,.071,6.2l.368.069c12.742,2.32,25.977-1.8,35.634-13.348" transform="translate(-4148.258 -1384.745)" fill="#002955" fill-rule="evenodd"></path><path d="M446.38,123.906a4.012,4.012,0,0,0,.357.381c3.928,3.891,13.607,9.9,28.183,7.34a37.169,37.169,0,0,0,21.8-12.84c-12.7,11.361-20.009.811-27.731-6.52a30.872,30.872,0,0,0-10.723-6.835,13.466,13.466,0,0,0-4.508-.738,11.018,11.018,0,0,0-7.377,19.212" transform="translate(-4114.397 -1370.564)" fill="#00cfca" fill-rule="evenodd"></path><path d="M443.467,15.859a3.055,3.055,0,0,0-.658,1.325,3.808,3.808,0,0,0,1.076,3.513c2.047,2.164,6.381,1.1,8.983.142s15.16-7.237,18.42-8.868a36.684,36.684,0,0,1,8.251-3.2,3.165,3.165,0,0,0-.071-6.2l-.368-.069c-12.742-2.32-25.977,1.8-35.634,13.348" transform="translate(-4114.396 -1301.274)" fill="#002955" fill-rule="evenodd"></path><path d="M498.214,8.338a4.038,4.038,0,0,0-.357-.381c-3.928-3.891-13.607-9.9-28.183-7.339a37.168,37.168,0,0,0-21.8,12.84c12.7-11.361,20.009-.811,27.731,6.52a30.879,30.879,0,0,0,10.723,6.835,13.474,13.474,0,0,0,4.508.738,11.018,11.018,0,0,0,7.377-19.212" transform="translate(-4117.867 -1300.001)" fill="#00cfca" fill-rule="evenodd"></path><path d="M523.225,79.671a6.988,6.988,0,1,0-6.988,6.988,6.988,6.988,0,0,0,6.988-6.988" transform="translate(-4159.232 -1348.989)" fill="#002955"></path></g></svg> 